<svg xmlns="http://www.w3.org/2000/svg" viewBox="0 0 32 32" aria-hidden="true" role="presentation" focusable="false" style="display: block; height: 24px; width: 24px; fill: currentcolor;"><path d="M2 4a1 1 0 0 1 1.62-.78l.09.07 25 25a1 1 0 0 1-.6 1.7L28 30H3a1 1 0 0 1-1-.88V29zm2 2.42V28h21.59l-4.09-4.09-1.8 1.8-1.4-1.42 1.78-1.8-2.58-2.58-1.8 1.8-1.4-1.42 1.78-1.8-2.58-2.58-1.8 1.8-1.4-1.42 1.78-1.8-2.58-2.58-1.8 1.8-1.4-1.42 1.78-1.8zM7 17a1 1 0 0 1 1.62-.78l.09.07 7 7a1 1 0 0 1-.6 1.7L15 25H8a1 1 0 0 1-1-.88V24zm5.3-15.2a1 1 0 0 1 1.31-.09l.1.08 15.5 15.5a1 1 0 0 1 .15.2l.05.1 2 4.5a1 1 0 0 1-1.1 1.4l-.1-.03-5-1.5a1 1 0 0 1-.32-.17l-.1-.08L9.3 6.2a1 1 0 0 1-.08-1.32l.08-.1zM9 19.4V23h3.58zm7.25-12.25-1.58 1.59L26.02 20.1l2.67.8-1.04-2.33zM13 3.91 11.42 5.5l1.83 1.83 1.58-1.58z"></path></svg>